<svg version="1.1" xmlns="http://www.w3.org/2000/svg" xmlns:xlink="http://www.w3.org/1999/xlink" x="50%" y="50%" viewBox="0 0 450 500" enable-background="new 0 0 450 500" xml:space="preserve">
<g>
	<g id="">
		<g id="">
			<path fill="#2f2442" d="M341.6,410.6c58.2,0,105.3-70.9,105.3-158.4S399.8,93.8,341.6,93.8s-47.1,70.9-47.1,158.4
				S283.4,410.6,341.6,410.6z" class="color color-1" data-color="#FFAAAC"></path>
		</g>
		<g id="">
			<path fill="#2f2442" d="M107.7,410.6c-58.2,0-105.3-70.9-105.3-158.4c0-87.5,47.2-158.4,105.3-158.4s47.1,70.9,47.1,158.4
				C154.7,339.6,165.8,410.6,107.7,410.6z" class="color color-1" data-color="#FFAAAC"></path>
		</g>
	</g>
	<g id="">
		<path fill="#2f2442" d="M366.5,0.6c0,0-82.9,50.5-141.6,50.5c-58.7,0-142-50.5-142-50.5c-16,0-29.4,14.7-29.4,32.7v334.9
			c0,2.3,0.5,4.5,0.9,6.6C61.7,435.4,135.3,483,224.8,483c89.5,0,162.9-47.6,170.2-108.1c0.4-2.1,0.6-4.4,0.6-6.6V33.2
			C395.5,15.3,382.5,0.6,366.5,0.6z" class="color color-1" data-color="#FFAAAC"></path>
	</g>
</g>
<g id="white">
	<g opacity="0.4" id="">
		<path fill="#FFFFFF" d="M366.5,0.6c0,0-82.9,50.5-141.6,50.5c-58.7,0-142-50.5-142-50.5c-16,0-29.4,14.7-29.4,32.7v334.9
			c0,2.3,0.5,4.5,0.9,6.6C61.7,435.4,135.3,483,224.8,483c89.5,0,162.9-47.6,170.2-108.1c0.4-2.1,0.6-4.4,0.6-6.6V33.2
			C395.5,15.3,382.5,0.6,366.5,0.6z"></path>
	</g>
	<g opacity="0.5" id="">
		<ellipse fill="#FFFFFF" cx="224.6" cy="166" rx="148.3" ry="98.1"></ellipse>
	</g>
</g>
<g>
	<g id="">
		<path fill="#f46c93" d="M207.6,487.1c0-13.3-10.3-24.5-23.6-24.5s-23.6,10.4-23.6,23.7v11.3h47.1L207.6,487.1z" class="color color-2" data-color="#8C6239"></path>
	</g>
	<g id="">
		<path fill="#f46c93" d="M288.7,487.1c0-13.3-9.3-24.5-22.6-24.5c-13.3,0-22.6,10.4-22.6,23.7v11.3h45.2L288.7,487.1z" class="color color-2" data-color="#8C6239"></path>
	</g>
</g>
<g>
	<g id="">
		<g id="">
			<circle fill="#2f2442" cx="143.8" cy="179.6" r="13.5" class="color color-3" data-color="#1A1A1A"></circle>
		</g>
		<g id="">
			<circle fill="#2f2442" cx="305.5" cy="179.6" r="13.5" class="color color-3" data-color="#1A1A1A"></circle>
		</g>
	</g>
</g>
<g>
	<g id="">
		<path fill="#2f2442" d="M395.4,33.2c0-18-13.1-32.7-29.1-32.7c0,0-83,50.5-141.7,50.5S82.9,0.6,82.9,0.6
			c-16,0-29.1,14.7-29.1,32.7c0,0,129.9,184.7,170.8,184.7C265.5,217.9,395.4,33.2,395.4,33.2z" class="color color-1" data-color="#FFAAAC"></path>
	</g>
	<g id="layer_8">
		<g id="">
			<path fill="#2f2442" d="M190.4,362.9c-21.4,0-38.8-19.2-38.8-42.9c0-2.8,2.2-5,5-5s5,2.2,5,5c0,18.1,12.9,32.9,28.8,32.9
				s28.8-14.8,28.8-32.9c0-2.8,2.2-5,5-5s5,2.2,5,5C229.2,343.6,211.8,362.9,190.4,362.9z" class="color color-1" data-color="#FFAAAC"></path>
		</g>
		<g id="">
			<path fill="#2f2442" d="M325.3,325.6c-21.4,0-38.8-19.2-38.8-42.9c0-2.8,2.2-5,5-5s5,2.2,5,5c0,18.1,12.9,32.9,28.8,32.9
				c15.9,0,28.8-14.8,28.8-32.9c0-2.8,2.2-5,5-5s5,2.2,5,5C364.1,306.4,346.7,325.6,325.3,325.6z" class="color color-1" data-color="#FFAAAC"></path>
		</g>
		<g id="">
			<path fill="#2f2442" d="M244.8,434.4c-21.4,0-38.8-19.2-38.8-42.9c0-2.8,2.2-5,5-5s5,2.2,5,5c0,18.1,12.9,32.9,28.8,32.9
				s28.8-14.8,28.8-32.9c0-2.8,2.2-5,5-5s5,2.2,5,5C283.6,415.1,266.2,434.4,244.8,434.4z" class="color color-1" data-color="#FFAAAC"></path>
		</g>
		<g id="">
			<path fill="#2f2442" d="M312.2,434.4c-21.4,0-38.8-19.2-38.8-42.9c0-2.8,2.2-5,5-5s5,2.2,5,5c0,18.1,12.9,32.9,28.8,32.9
				c15.9,0,28.8-14.8,28.8-32.9c0-2.8,2.2-5,5-5s5,2.2,5,5C351.1,415.1,333.6,434.4,312.2,434.4z" class="color color-1" data-color="#FFAAAC"></path>
		</g>
		<g id="">
			<path fill="#2f2442" d="M120.9,362.9c-21.4,0-38.8-19.2-38.8-42.9c0-2.8,2.2-5,5-5s5,2.2,5,5c0,18.1,12.9,32.9,28.8,32.9
				s28.8-14.8,28.8-32.9c0-2.8,2.2-5,5-5s5,2.2,5,5C159.7,343.6,142.3,362.9,120.9,362.9z" class="color color-1" data-color="#FFAAAC"></path>
		</g>
	</g>
</g>
<g>
	<g id="">
		<path fill="#f46c93" d="M170.4,178.7c22.2,23.9,42.2,54.9,54.3,54.8c11.9-0.1,32.8-32.8,54.3-54.8L170.4,178.7z" class="color color-4" data-color="#FCEE21"></path>
	</g>
</g>
</svg>